<?xml version="1.0" encoding="UTF-8" standalone="no"?>
<!DOCTYPE svg PUBLIC "-//W3C//DTD SVG 1.1//EN" "http://www.w3.org/Graphics/SVG/1.1/DTD/svg11.dtd">
<svg width="100%" height="100%" viewBox="0 0 200 200" version="1.1" xmlns="http://www.w3.org/2000/svg" xmlns:xlink="http://www.w3.org/1999/xlink" xml:space="preserve" xmlns:serif="http://www.serif.com/" style="fill-rule:evenodd;clip-rule:evenodd;stroke-linejoin:round;stroke-miterlimit:2;">
    <g transform="matrix(0.829326,0,0,0.829326,2.85895,5.16828)">
        <path d="M74.587,25.953C74.587,17.52 67.741,10.673 59.307,10.673L28.748,10.673C20.315,10.673 13.469,17.52 13.469,25.953L13.469,56.512C13.469,64.945 20.315,71.792 28.748,71.792L59.307,71.792C67.741,71.792 74.587,64.945 74.587,56.512L74.587,25.953Z" style="fill:rgb(245,194,231);"/>
    </g>
    <g transform="matrix(0.829326,0,0,0.829326,63.4865,5.16828)">
        <path d="M74.587,25.953C74.587,17.52 67.741,10.673 59.307,10.673L28.748,10.673C20.315,10.673 13.469,17.52 13.469,25.953L13.469,56.512C13.469,64.945 20.315,71.792 28.748,71.792L59.307,71.792C67.741,71.792 74.587,64.945 74.587,56.512L74.587,25.953Z" style="fill:rgb(245,194,231);"/>
    </g>
    <g transform="matrix(0.829326,0,0,0.829326,124.114,5.16828)">
        <path d="M74.587,25.953C74.587,17.52 67.741,10.673 59.307,10.673L28.748,10.673C20.315,10.673 13.469,17.52 13.469,25.953L13.469,56.512C13.469,64.945 20.315,71.792 28.748,71.792L59.307,71.792C67.741,71.792 74.587,64.945 74.587,56.512L74.587,25.953Z" style="fill:rgb(245,194,231);"/>
    </g>
    <g transform="matrix(0.829326,0,0,0.829326,2.85896,65.7975)">
        <path d="M74.587,25.953C74.587,17.52 67.741,10.673 59.307,10.673L28.748,10.673C20.315,10.673 13.469,17.52 13.469,25.953L13.469,56.512C13.469,64.945 20.315,71.792 28.748,71.792L59.307,71.792C67.741,71.792 74.587,64.945 74.587,56.512L74.587,25.953Z" style="fill:rgb(245,194,231);"/>
    </g>
    <g transform="matrix(0.829326,0,0,0.829326,63.4865,65.7975)">
        <path d="M74.587,25.953C74.587,17.52 67.741,10.673 59.307,10.673L28.748,10.673C20.315,10.673 13.469,17.52 13.469,25.953L13.469,56.512C13.469,64.945 20.315,71.792 28.748,71.792L59.307,71.792C67.741,71.792 74.587,64.945 74.587,56.512L74.587,25.953Z" style="fill:white;"/>
    </g>
    <g transform="matrix(0.829326,0,0,0.829326,124.114,65.7975)">
        <path d="M74.587,25.953C74.587,17.52 67.741,10.673 59.307,10.673L28.748,10.673C20.315,10.673 13.469,17.52 13.469,25.953L13.469,56.512C13.469,64.945 20.315,71.792 28.748,71.792L59.307,71.792C67.741,71.792 74.587,64.945 74.587,56.512L74.587,25.953Z" style="fill:rgb(245,194,231);"/>
    </g>
    <g transform="matrix(0.829326,0,0,0.829326,2.85896,126.441)">
        <path d="M74.587,25.953C74.587,17.52 67.741,10.673 59.307,10.673L28.748,10.673C20.315,10.673 13.469,17.52 13.469,25.953L13.469,56.512C13.469,64.945 20.315,71.792 28.748,71.792L59.307,71.792C67.741,71.792 74.587,64.945 74.587,56.512L74.587,25.953Z" style="fill:rgb(245,194,231);"/>
    </g>
    <g transform="matrix(0.829326,0,0,0.829326,63.4865,126.441)">
        <path d="M74.587,25.953C74.587,17.52 67.741,10.673 59.307,10.673L28.748,10.673C20.315,10.673 13.469,17.52 13.469,25.953L13.469,56.512C13.469,64.945 20.315,71.792 28.748,71.792L59.307,71.792C67.741,71.792 74.587,64.945 74.587,56.512L74.587,25.953Z" style="fill:rgb(245,194,231);"/>
    </g>
    <g transform="matrix(0.829326,0,0,0.829326,124.114,123.686)">
        <path d="M74.587,25.953C74.587,17.52 67.741,10.673 59.307,10.673L28.748,10.673C20.315,10.673 13.469,17.52 13.469,25.953L13.469,56.512C13.469,64.945 20.315,71.792 28.748,71.792L59.307,71.792C67.741,71.792 74.587,64.945 74.587,56.512L74.587,25.953Z" style="fill:rgb(245,194,231);"/>
    </g>
</svg>
